<?xml version="1.0" encoding="utf-8"?>
<!-- Generator: Adobe Illustrator 23.1.0, SVG Export Plug-In . SVG Version: 6.00 Build 0)  -->
<svg version="1.1" xmlns="http://www.w3.org/2000/svg" xmlns:xlink="http://www.w3.org/1999/xlink" x="0px" y="0px"
	 viewBox="0 0 1920 1080" style="enable-background:new 0 0 1920 1080;" xml:space="preserve">
<style type="text/css">
	.st0{fill:#8CC63F;stroke:#22B573;stroke-width:2;stroke-linecap:round;stroke-linejoin:round;stroke-miterlimit:10;}
	.st1{fill:#22B573;}
	.st2{fill:#00A99D;}
</style>
<g id="图层_1">
</g>
<g id="图层_2">
	<g>
		<g>
			<path d="M208.1,1099.6c1.9,0,1.9-3,0-3C206.2,1096.6,206.2,1099.6,208.1,1099.6L208.1,1099.6z"/>
		</g>
	</g>
	
		<image style="overflow:visible;" width="268" height="188" xlink:href="images.png"  transform="matrix(5.5299 0 0 3.4521 -1749 137)">
	</image>
	<path class="st0" d="M1551.1,741.9l2,11.4c0,0,0.5,2.4-0.9,6c-1.4,3.6-3.2,5.8-6.9,7c-3.7,1.2-6.2,4.9-5.5,8.4
		c0.7,3.5,3.3,6.3,5.9,6.5s4.4-0.8,6.8-4.1c2.4-3.3-0.3-7.8,1.5-10.4c1.7-2.6,2.5-5.4,2.6-7.2c0.2-1.8-2.7-15.9-2.7-15.9
		s-0.7-3.2,0.6-3.6c1.3-0.4,4.9-1.1,4.9-1.1s4.3-0.9,4.3-3.8c-0.1-2.9-2.9-2-2.9-2s-8.6,1.9-8.6,1.9c0,0-2.1,0.6-1.1,6.4"/>
	<path class="st0" d="M1442.8,723.5l4.3,10.8c0,0,1,2.2,0.4,6.1s-1.9,6.3-5.3,8.3s-5,6.1-3.6,9.4s4.5,5.5,7.1,5.1
		c2.6-0.4,4.1-1.7,5.8-5.4s-1.9-7.6-0.8-10.5c1.1-2.9,1.3-5.8,1.1-7.5c-0.2-1.8-6-15-6-15s-1.3-3-0.1-3.7c1.2-0.7,4.5-2.1,4.5-2.1
		s4-1.8,3.4-4.6c-0.7-2.8-3.3-1.3-3.3-1.3s-8,3.6-8,3.6c0,0-1.9,1,0.3,6.5"/>
	<path class="st0" d="M1399.8,614.1l-5.3,13.6c0,0-1,2.9-5.3,5.8c-4.3,2.8-8,3.9-13.6,2.4c-5.6-1.4-11.2,0.7-12.7,5
		s-0.1,9.1,3.2,11.2s6.2,2.4,11.5,0.6c5.3-1.8,5-8.5,9-10s6.8-3.9,8.3-5.7c1.4-1.8,7.4-18.9,7.4-18.9s1.3-3.9,3.3-3.4s7,2.4,7,2.4
		s6.2,2.2,8-0.9s-2.4-4.2-2.4-4.2s-12.3-4.3-12.3-4.3s-3-0.9-5.7,6"/>
	<path class="st0" d="M1256.2,669.2l-5.8,14.9c0,0-1,3.2-6.8,5.9c-5.8,2.7-11,3.4-19.1,1.1c-8.2-2.3-16-0.6-17.6,4.1
		c-1.6,4.7,1,10.4,6,13.3c5,2.9,9.2,3.5,16.5,2.2s6-9.1,11.5-10.4c5.5-1.3,9.3-3.6,11.1-5.5c1.8-1.8,8.1-20.8,8.1-20.8
		s1.3-4.3,4.3-3.5c2.9,0.9,10.4,3.6,10.4,3.6s9.1,3.3,11.4,0c2.3-3.3-4-5.2-4-5.2s-18.1-6.5-18.2-6.5c-0.1,0-4.5-1.4-7.4,6.2"/>
	<path class="st0" d="M1275.3,479.7l-1.3,24.9c0,0-0.1,5.3-3.7,12.3c-3.7,7-7.2,10.8-13.4,11.7c-6.3,0.9-11.5,7.5-11.8,15.3
		s2.7,14.7,6.8,16.3c4.1,1.6,7.2,0.3,12.2-5.5c5-5.8,2.6-16.5,6.3-21.2s5.9-10.2,6.9-13.9c1-3.7,1.9-34.7,1.9-34.7s0.1-7,2.4-7.3
		s8.1-0.2,8.1-0.2s7.1,0,8.1-6.1c1-6-3.8-5.5-3.8-5.5s-14.2,0.1-14.2,0.1s-3.4,0.3-4.1,13"/>
	<path class="st0" d="M1153.9,328.5l-11.7,29.9c0,0-2.1,6.5-12.6,12.3c-10.5,5.9-19.6,7.7-33.7,3.9c-14.1-3.8-28,0.3-31.3,9.7
		s0.7,20.4,9.2,25.5c8.5,5.2,15.8,6,28.7,2.7s11.5-18.5,21.3-21.5c9.8-3,16.6-8.1,20-11.9c3.4-3.8,16.3-41.7,16.3-41.7
		s2.8-8.6,7.8-7.2c5,1.4,17.9,6.1,17.9,6.1s15.7,5.6,20-1.2s-6.5-9.8-6.5-9.8s-31.2-11-31.3-11.1c-0.1,0-7.7-2.3-13.6,12.9"/>
	<path class="st0" d="M1117.8,555.3l-10.1,25.9c0,0-1.8,5.6-10,11.1s-15,7.5-25.3,4.9c-10.4-2.6-20.9,1.6-23.8,9.7
		c-2.9,8.1-0.4,17.3,5.7,21.2c6.1,4,11.5,4.4,21.3,0.9c9.8-3.4,9.4-16.2,16.9-19.2c7.4-3,12.8-7.6,15.5-11
		c2.7-3.4,14.1-36.1,14.1-36.1s2.5-7.4,6.2-6.5c3.7,1,13,4.4,13,4.4s11.5,4,15-1.9c3.5-5.9-4.4-8-4.4-8s-22.8-7.9-22.8-7.9
		c-0.1,0-5.6-1.6-10.8,11.6"/>
	<g>
		<g>
			<path class="st1" d="M145.7,814.5c71.5-2.8,143.1-5.6,214.6-1.7c69.9,3.8,138.8,15.5,206.8,31.7c67.4,16,133.8,35.9,200.4,54.9
				c67.3,19.1,134.9,37.3,203.8,49.7c67.7,12.1,136.7,18.7,205.5,14.5c8.8-0.5,17.6-1.3,26.3-2.1c1.9-0.2,1.9-3.2,0-3
				c-70,7-140.6,2.5-209.9-8.6c-68.9-11.1-136.5-28.4-203.6-47.2c-66.7-18.7-133-38.8-200.3-55.6c-66.8-16.7-134.5-30-203.2-35.4
				c-71-5.6-142.4-3.7-213.5-1c-9,0.3-18.1,0.7-27.1,1.1C143.8,811.6,143.8,814.6,145.7,814.5L145.7,814.5z"/>
		</g>
	</g>
	<g>
		<g>
			<path class="st1" d="M893.5,925.9c128.8-15.1,258.5-18,388-20.6c130.1-2.6,260.5-5.4,390.5,3.3c72.8,4.9,145.3,13.3,217.8,21.9
				c1.9,0.2,1.9-2.8,0-3c-64.6-7.7-129.3-15.2-194.2-20.2c-64.5-5-129.2-7.1-194-7.5c-65.5-0.4-130.9,0.7-196.4,2
				c-64.5,1.3-129,2.5-193.4,5c-72.9,2.9-145.8,7.6-218.3,16.1C891.6,923.1,891.6,926.1,893.5,925.9L893.5,925.9z"/>
		</g>
	</g>
	<g>
		<g>
			<path class="st2" d="M338.5,239.1c12.1-14.8,28.3-27.7,47.9-29.3c9-0.7,18.5,0.7,26.3,5.4c3.9,2.3,7.6,5.5,9.7,9.6
				c2,3.9,2,8.5-1.4,11.7c-1.4,1.3-3.3,2.3-5.3,2.5c-2.4,0.2-4.5-1-6.3-2.5c-0.6-0.5-2.2-1.5-2.3-2.2c-0.2-0.7,1-1.2,1.6-1.4
				c2.5-1,5.3-1.4,7.9-1.9c11.1-2,22.5-2.1,33.6-0.1c5.7,1,11.3,2.6,16.8,4.4c2.7,0.9,5.4,1.8,8,2.7c2.5,0.9,4.9,1.8,7.2,3.2
				c7.7,4.8,7.6,15.1,2.6,21.9c-5.9,8-16.4,11.8-25.6,14.3c-9.4,2.5-21,3-28.6-4.2c-1.5-1.4-2.7-3.1-3.6-5.1
				c-0.3,0.7-0.6,1.5-0.9,2.2c3.8-1.2,8.1-2.6,12.1-1.4c2.6,0.8,5.9,3.3,4.7,6.4c-1,2.6-4.4,3.9-6.8,4.8c-3.9,1.3-7.9,2.4-11.8,3.5
				c-8.4,2.4-16.9,4.8-25.3,7.1c-8.2,2.3-16.5,4.6-24.9,6.1c-8.3,1.5-17.1,2.5-25.5,0.7c-7.7-1.6-14.1-6.2-21.2-9.3
				c-4.4-1.9-14.6-4.3-13-11.1c0.9-3.6,5.1-2.7,7.6-1.4c1.6,0.8,3.1,1.8,4.5,2.9c1.2,1,2.6,2.2,3,3.8c0.8,3.3-3.1,5.6-5.6,6.6
				c-3.7,1.5-7.8,2.2-11.8,2.6c-4.1,0.4-8.2,0.7-12.3,0.9c-4.1,0.2-8.3,0.2-12.4-0.4c-14.3-2.2-24.6-13.2-32.1-24.8
				c-4-6.2-7.4-14.2-1.9-20.7c4.7-5.5,12.1-8.1,19.1-9.5c3.7-0.7,7.4-1.2,11.1-1.6c3.7-0.4,8.2-1.3,11.8,0.2
				c2.8,1.2,4.5,3.9,5.7,6.6c0.9,2.1,3.4,6.9,0.3,8c-2.6,0.9-5.6-0.6-7.2-2.7c-1.6-2.1-2.2-5-1.6-7.5c1.4-6.6,8.7-10.3,14.5-12.2
				c6.5-2.1,13.6-2.6,20.4-1.5c3.4,0.6,6.7,1.5,9.9,2.8c3,1.2,6.2,2.9,8.7,5c0.5,0.4,0.9,0.9,0.7,1.6c-0.2,0.6-0.8,1.2-1.4,1.4
				c-1.6,0.8-3.7,0.5-5.4,0.3c-1.9-0.2-1.9,2.8,0,3c3.6,0.3,9,0.1,9.9-4.4c0.4-1.9-0.7-3.4-2.2-4.6c-1.6-1.2-3.2-2.2-5-3.2
				c-7-3.8-15-5.6-23-5.6c-7.8,0.1-16.1,2-22.6,6.5c-3.1,2.2-5.9,5.1-7.2,8.7c-1.1,3.1-0.8,6.6,0.7,9.5c1.4,2.9,4.2,5.3,7.5,5.9
				c3.5,0.6,7.6-0.9,7.8-5c0.1-1.9-0.7-3.7-1.3-5.4c-0.6-1.7-1.3-3.4-2.3-4.9c-2.1-3.3-5.1-5.5-9-6c-2.3-0.3-4.6,0-6.9,0.2
				c-2.2,0.2-4.3,0.4-6.5,0.7c-4.2,0.5-8.5,1.2-12.6,2.3c-7.5,2.2-16.2,6.5-19,14.4c-3,8.4,2.9,17,7.6,23.5
				c4.6,6.4,10.1,12.4,16.8,16.6c7.7,4.8,16.4,6.1,25.3,5.8c4.7-0.1,9.4-0.5,14.1-1c4.5-0.5,9.1-1.2,13.3-3c3.3-1.4,7-4.1,7.2-8
				c0.2-4-3.4-6.7-6.3-8.7c-3.3-2.3-7.7-4.5-11.6-2.4c-2.9,1.5-3.8,5.1-3.1,8.1c0.9,3.6,4,5.9,7.2,7.4c3.9,1.9,8,3.2,11.8,5.3
				c3.9,2,7.7,4.2,11.8,5.8c4.4,1.7,9.1,2.4,13.8,2.5c9.8,0.3,19.6-1.6,29-4c9.8-2.4,19.5-5.2,29.1-8c4.9-1.4,9.7-2.8,14.5-4.2
				c4.1-1.2,8.4-2.1,12.1-4.2c2.9-1.6,5.5-4.3,5.1-7.9c-0.4-3.7-3.8-6.4-7.3-7.4c-4.5-1.3-9.2,0.1-13.5,1.4c-1,0.3-1.3,1.3-0.9,2.2
				c4.4,10.1,16.8,13.2,26.8,12.3c6.1-0.6,12.1-2.3,17.8-4.5c5-1.9,9.9-4.4,14-7.9c3.8-3.2,6.7-7.4,7.9-12.3
				c1.1-4.5,0.6-9.4-1.8-13.4c-2.9-4.7-8-6.9-12.9-8.6c-6.1-2.2-12.3-4.2-18.6-5.8c-12.3-3-25-3.7-37.6-1.9c-3.1,0.4-6.1,1-9.2,1.7
				c-2.2,0.5-5,1.1-6.3,3.2c-1.5,2.4,0.6,4.4,2.3,5.9c2,1.7,4.3,3.3,7,3.7c4.7,0.6,9.4-2.2,11.7-6.2c2.6-4.6,1.2-10.1-1.6-14.2
				c-5.7-8.4-16-12.9-25.7-14.3c-10.4-1.5-20.9,0.3-30.5,4.5c-10,4.4-18.7,11.4-26.1,19.3c-1.8,1.9-3.5,3.9-5.2,6
				C335.2,238.5,337.3,240.6,338.5,239.1L338.5,239.1z"/>
		</g>
	</g>
	<g>
		<g>
			<path class="st2" d="M665.5,140.1c12.1-14.8,28.3-27.7,47.9-29.3c9-0.7,18.5,0.7,26.3,5.4c3.9,2.3,7.6,5.5,9.7,9.6
				c2,3.9,2,8.5-1.4,11.7c-1.4,1.3-3.3,2.3-5.3,2.5c-2.4,0.2-4.5-1-6.3-2.5c-0.6-0.5-2.2-1.5-2.3-2.2c-0.2-0.7,1-1.2,1.6-1.4
				c2.5-1,5.3-1.4,7.9-1.9c11.1-2,22.5-2.1,33.6-0.1c5.7,1,11.3,2.6,16.8,4.4c2.7,0.9,5.4,1.8,8,2.7c2.5,0.9,4.9,1.8,7.2,3.2
				c7.7,4.8,7.6,15.1,2.6,21.9c-5.9,8-16.4,11.8-25.6,14.3c-9.4,2.5-21,3-28.6-4.2c-1.5-1.4-2.7-3.1-3.6-5.1
				c-0.3,0.7-0.6,1.5-0.9,2.2c3.8-1.2,8.1-2.6,12.1-1.4c2.6,0.8,5.9,3.3,4.7,6.4c-1,2.6-4.4,3.9-6.8,4.8c-3.9,1.3-7.9,2.4-11.8,3.5
				c-8.4,2.4-16.9,4.8-25.3,7.1c-8.2,2.3-16.5,4.6-24.9,6.1c-8.3,1.5-17.1,2.5-25.5,0.7c-7.7-1.6-14.1-6.2-21.2-9.3
				c-4.4-1.9-14.6-4.3-13-11.1c0.9-3.6,5.1-2.7,7.6-1.4c1.6,0.8,3.1,1.8,4.5,2.9c1.2,1,2.6,2.2,3,3.8c0.8,3.3-3.1,5.6-5.6,6.6
				c-3.7,1.5-7.8,2.2-11.8,2.6c-4.1,0.4-8.2,0.7-12.3,0.9c-4.1,0.2-8.3,0.2-12.4-0.4c-14.3-2.2-24.6-13.2-32.1-24.8
				c-4-6.2-7.4-14.2-1.9-20.7c4.7-5.5,12.1-8.1,19.1-9.5c3.7-0.7,7.4-1.2,11.1-1.6c3.7-0.4,8.2-1.3,11.8,0.2
				c2.8,1.2,4.5,3.9,5.7,6.6c0.9,2.1,3.4,6.9,0.3,8c-2.6,0.9-5.6-0.6-7.2-2.7c-1.6-2.1-2.2-5-1.6-7.5c1.4-6.6,8.7-10.3,14.5-12.2
				c6.5-2.1,13.6-2.6,20.4-1.5c3.4,0.6,6.7,1.5,9.9,2.8c3,1.2,6.2,2.9,8.7,5c0.5,0.4,0.9,0.9,0.7,1.6c-0.2,0.6-0.8,1.2-1.4,1.4
				c-1.6,0.8-3.7,0.5-5.4,0.3c-1.9-0.2-1.9,2.8,0,3c3.6,0.3,9,0.1,9.9-4.4c0.4-1.9-0.7-3.4-2.2-4.6c-1.6-1.2-3.2-2.2-5-3.2
				c-7-3.8-15-5.6-23-5.6c-7.8,0.1-16.1,2-22.6,6.5c-3.1,2.2-5.9,5.1-7.2,8.7c-1.1,3.1-0.8,6.6,0.7,9.5c1.4,2.9,4.2,5.3,7.5,5.9
				c3.5,0.6,7.6-0.9,7.8-5c0.1-1.9-0.7-3.7-1.3-5.4c-0.6-1.7-1.3-3.4-2.3-4.9c-2.1-3.3-5.1-5.5-9-6c-2.3-0.3-4.6,0-6.9,0.2
				c-2.2,0.2-4.3,0.4-6.5,0.7c-4.2,0.5-8.5,1.2-12.6,2.3c-7.5,2.2-16.2,6.5-19,14.4c-3,8.4,2.9,17,7.6,23.5
				c4.6,6.4,10.1,12.4,16.8,16.6c7.7,4.8,16.4,6.1,25.3,5.8c4.7-0.1,9.4-0.5,14.1-1c4.5-0.5,9.1-1.2,13.3-3c3.3-1.4,7-4.1,7.2-8
				c0.2-4-3.4-6.7-6.3-8.7c-3.3-2.3-7.7-4.5-11.6-2.4c-2.9,1.5-3.8,5.1-3.1,8.1c0.9,3.6,4,5.9,7.2,7.4c3.9,1.9,8,3.2,11.8,5.3
				c3.9,2,7.7,4.2,11.8,5.8c4.4,1.7,9.1,2.4,13.8,2.5c9.8,0.3,19.6-1.6,29-4c9.8-2.4,19.5-5.2,29.1-8c4.9-1.4,9.7-2.8,14.5-4.2
				c4.1-1.2,8.4-2.1,12.1-4.2c2.9-1.6,5.5-4.3,5.1-7.9c-0.4-3.7-3.8-6.4-7.3-7.4c-4.5-1.3-9.2,0.1-13.5,1.4c-1,0.3-1.3,1.3-0.9,2.2
				c4.4,10.1,16.8,13.2,26.8,12.3c6.1-0.6,12.1-2.3,17.8-4.5c5-1.9,9.9-4.4,14-7.9c3.8-3.2,6.7-7.4,7.9-12.3
				c1.1-4.5,0.6-9.4-1.8-13.4c-2.9-4.7-8-6.9-12.9-8.6c-6.1-2.2-12.3-4.2-18.6-5.8c-12.3-3-25-3.7-37.6-1.9c-3.1,0.4-6.1,1-9.2,1.7
				c-2.2,0.5-5,1.1-6.3,3.2c-1.5,2.4,0.6,4.4,2.3,5.9c2,1.7,4.3,3.3,7,3.7c4.7,0.6,9.4-2.2,11.7-6.2c2.6-4.6,1.2-10.1-1.6-14.2
				c-5.7-8.4-16-12.9-25.7-14.3c-10.4-1.5-20.9,0.3-30.5,4.5c-10,4.4-18.7,11.4-26.1,19.3c-1.8,1.9-3.5,3.9-5.2,6
				C662.2,139.5,664.3,141.6,665.5,140.1L665.5,140.1z"/>
		</g>
	</g>
	<g>
		<g>
			<path class="st2" d="M1464.5,265.1c12.1-14.8,28.3-27.7,47.9-29.3c9-0.7,18.5,0.7,26.3,5.4c3.9,2.3,7.6,5.5,9.7,9.6
				c2,3.9,2,8.5-1.4,11.7c-1.4,1.3-3.3,2.3-5.3,2.5c-2.4,0.2-4.5-1-6.3-2.5c-0.6-0.5-2.2-1.5-2.3-2.2c-0.2-0.7,1-1.2,1.6-1.4
				c2.5-1,5.3-1.4,7.9-1.9c11.1-2,22.5-2.1,33.6-0.1c5.7,1,11.3,2.6,16.8,4.4c2.7,0.9,5.4,1.8,8,2.7c2.5,0.9,4.9,1.8,7.2,3.2
				c7.7,4.8,7.6,15.1,2.6,21.9c-5.9,8-16.4,11.8-25.6,14.3c-9.4,2.5-21,3-28.6-4.2c-1.5-1.4-2.7-3.1-3.6-5.1
				c-0.3,0.7-0.6,1.5-0.9,2.2c3.8-1.2,8.1-2.6,12.1-1.4c2.6,0.8,5.9,3.3,4.7,6.4c-1,2.6-4.4,3.9-6.8,4.8c-3.9,1.3-7.9,2.4-11.8,3.5
				c-8.4,2.4-16.9,4.8-25.3,7.1c-8.2,2.3-16.5,4.6-24.9,6.1c-8.3,1.5-17.1,2.5-25.5,0.7c-7.7-1.6-14.1-6.2-21.2-9.3
				c-4.4-1.9-14.6-4.3-13-11.1c0.9-3.6,5.1-2.7,7.6-1.4c1.6,0.8,3.1,1.8,4.5,2.9c1.2,1,2.6,2.2,3,3.8c0.8,3.3-3.1,5.6-5.6,6.6
				c-3.7,1.5-7.8,2.2-11.8,2.6c-4.1,0.4-8.2,0.7-12.3,0.9c-4.1,0.2-8.3,0.2-12.4-0.4c-14.3-2.2-24.6-13.2-32.1-24.8
				c-4-6.2-7.4-14.2-1.9-20.7c4.7-5.5,12.1-8.1,19.1-9.5c3.7-0.7,7.4-1.2,11.1-1.6c3.7-0.4,8.2-1.3,11.8,0.2
				c2.8,1.2,4.5,3.9,5.7,6.6c0.9,2.1,3.4,6.9,0.3,8c-2.6,0.9-5.6-0.6-7.2-2.7c-1.6-2.1-2.2-5-1.6-7.5c1.4-6.6,8.7-10.3,14.5-12.2
				c6.5-2.1,13.6-2.6,20.4-1.5c3.4,0.6,6.7,1.5,9.9,2.8c3,1.2,6.2,2.9,8.7,5c0.5,0.4,0.9,0.9,0.7,1.6c-0.2,0.6-0.8,1.2-1.4,1.4
				c-1.6,0.8-3.7,0.5-5.4,0.3c-1.9-0.2-1.9,2.8,0,3c3.6,0.3,9,0.1,9.9-4.4c0.4-1.9-0.7-3.4-2.2-4.6c-1.6-1.2-3.2-2.2-5-3.2
				c-7-3.8-15-5.6-23-5.6c-7.8,0.1-16.1,2-22.6,6.5c-3.1,2.2-5.9,5.1-7.2,8.7c-1.1,3.1-0.8,6.6,0.7,9.5c1.4,2.9,4.2,5.3,7.5,5.9
				c3.5,0.6,7.6-0.9,7.8-5c0.1-1.9-0.7-3.7-1.3-5.4c-0.6-1.7-1.3-3.4-2.3-4.9c-2.1-3.3-5.1-5.5-9-6c-2.3-0.3-4.6,0-6.9,0.2
				c-2.2,0.2-4.3,0.4-6.5,0.7c-4.2,0.5-8.5,1.2-12.6,2.3c-7.5,2.2-16.2,6.5-19,14.4c-3,8.4,2.9,17,7.6,23.5
				c4.6,6.4,10.1,12.4,16.8,16.6c7.7,4.8,16.4,6.1,25.3,5.8c4.7-0.1,9.4-0.5,14.1-1c4.5-0.5,9.1-1.2,13.3-3c3.3-1.4,7-4.1,7.2-8
				c0.2-4-3.4-6.7-6.3-8.7c-3.3-2.3-7.7-4.5-11.6-2.4c-2.9,1.5-3.8,5.1-3.1,8.1c0.9,3.6,4,5.9,7.2,7.4c3.9,1.9,8,3.2,11.8,5.3
				c3.9,2,7.7,4.2,11.8,5.8c4.4,1.7,9.1,2.4,13.8,2.5c9.8,0.3,19.6-1.6,29-4c9.8-2.4,19.5-5.2,29.1-8c4.9-1.4,9.7-2.8,14.5-4.2
				c4.1-1.2,8.4-2.1,12.1-4.2c2.9-1.6,5.5-4.3,5.1-7.9c-0.4-3.7-3.8-6.4-7.3-7.4c-4.5-1.3-9.2,0.1-13.5,1.4c-1,0.3-1.3,1.3-0.9,2.2
				c4.4,10.1,16.8,13.2,26.8,12.3c6.1-0.6,12.1-2.3,17.8-4.5c5-1.9,9.9-4.4,14-7.9c3.8-3.2,6.7-7.4,7.9-12.3
				c1.1-4.5,0.6-9.4-1.8-13.4c-2.9-4.7-8-6.9-12.9-8.6c-6.1-2.2-12.3-4.2-18.6-5.8c-12.3-3-25-3.7-37.6-1.9c-3.1,0.4-6.1,1-9.2,1.7
				c-2.2,0.5-5,1.1-6.3,3.2c-1.5,2.4,0.6,4.4,2.3,5.9c2,1.7,4.3,3.3,7,3.7c4.7,0.6,9.4-2.2,11.7-6.2c2.6-4.6,1.2-10.1-1.6-14.2
				c-5.7-8.4-16-12.9-25.7-14.3c-10.4-1.5-20.9,0.3-30.5,4.5c-10,4.4-18.7,11.4-26.1,19.3c-1.8,1.9-3.5,3.9-5.2,6
				C1461.2,264.5,1463.3,266.6,1464.5,265.1L1464.5,265.1z"/>
		</g>
	</g>
	<g>
		<path class="st1" d="M206.6,899.2c4.4,6.4,8.3,13.8,11.3,21.9"/>
	</g>
	<g>
		<path class="st1" d="M207.2,899.3c9.5,5.3,18.4,12.9,26.5,22.3"/>
	</g>
	<g>
		<path class="st1" d="M229.8,878.1c0.2,10.2-2.2,20.5-6.5,28.3"/>
	</g>
	<g>
		<path class="st1" d="M229.8,878.4c0.1,3,0.8,5.9,1.6,8.6c3.3,10.9,8,20.9,10.4,32.3c0.1,0.4,0.2,0.9,0.5,0.9s0.3-0.8,0.1-0.7"/>
	</g>
	<g>
		<path class="st1" d="M237.5,902.6c4.8-11.3,9.6-23.2,10.9-36.6c0.9,17.5,2.4,34.9,4.5,52.1"/>
	</g>
	<g>
		<path class="st1" d="M252.2,903.9c12.9-3.2,25.8-5.9,38.8-8.3c-6.1,4.2-12.2,8.3-18.2,13.1c-2.3,1.8-4.6,3.8-6.2,7"/>
	</g>
	<g>
		<path class="st1" d="M431.6,956.2c4.4,6.4,8.3,13.8,11.3,21.9"/>
	</g>
	<g>
		<path class="st1" d="M432.2,956.3c9.5,5.3,18.4,12.9,26.5,22.3"/>
	</g>
	<g>
		<path class="st1" d="M454.8,935.1c0.2,10.2-2.2,20.5-6.5,28.3"/>
	</g>
	<g>
		<path class="st1" d="M454.8,935.4c0.1,3,0.8,5.9,1.6,8.6c3.3,10.9,8,20.9,10.4,32.3c0.1,0.4,0.2,0.9,0.5,0.9s0.3-0.8,0.1-0.7"/>
	</g>
	<g>
		<path class="st1" d="M462.5,959.6c4.8-11.3,9.6-23.2,10.9-36.6c0.9,17.5,2.4,34.9,4.5,52.1"/>
	</g>
	<g>
		<path class="st1" d="M477.2,960.9c12.9-3.2,25.8-5.9,38.8-8.3c-6.1,4.2-12.2,8.3-18.2,13.1c-2.3,1.8-4.6,3.8-6.2,7"/>
	</g>
	<g>
		<path class="st1" d="M668.6,984.2c4.4,6.4,8.3,13.8,11.3,21.9"/>
	</g>
	<g>
		<path class="st1" d="M669.2,984.3c9.5,5.3,18.4,12.9,26.5,22.3"/>
	</g>
	<g>
		<path class="st1" d="M691.8,963.1c0.2,10.2-2.2,20.5-6.5,28.3"/>
	</g>
	<g>
		<path class="st1" d="M691.8,963.4c0.1,3,0.8,5.9,1.6,8.6c3.3,10.9,8,20.9,10.4,32.3c0.1,0.4,0.2,0.9,0.5,0.9s0.3-0.8,0.1-0.7"/>
	</g>
	<g>
		<path class="st1" d="M699.5,987.6c4.8-11.3,9.6-23.2,10.9-36.6c0.9,17.5,2.4,34.9,4.5,52.1"/>
	</g>
	<g>
		<path class="st1" d="M714.2,988.9c12.9-3.2,25.8-5.9,38.8-8.3c-6.1,4.2-12.2,8.3-18.2,13.1c-2.3,1.8-4.6,3.8-6.2,7"/>
	</g>
	<g>
		<path class="st1" d="M917.6,1024.2c4.4,6.4,8.3,13.8,11.3,21.9"/>
	</g>
	<g>
		<path class="st1" d="M918.2,1024.3c9.5,5.3,18.4,12.9,26.5,22.3"/>
	</g>
	<g>
		<path class="st1" d="M940.8,1003.1c0.2,10.2-2.2,20.5-6.5,28.3"/>
	</g>
	<g>
		<path class="st1" d="M940.8,1003.4c0.1,3,0.8,5.9,1.6,8.6c3.3,10.9,8,20.9,10.4,32.3c0.1,0.4,0.2,0.9,0.5,0.9
			c0.3,0,0.3-0.8,0.1-0.7"/>
	</g>
	<g>
		<path class="st1" d="M948.5,1027.6c4.8-11.3,9.6-23.2,10.9-36.6c0.9,17.5,2.4,34.9,4.5,52.1"/>
	</g>
	<g>
		<path class="st1" d="M963.2,1028.9c12.9-3.2,25.8-5.9,38.8-8.3c-6.1,4.2-12.2,8.3-18.2,13.1c-2.3,1.8-4.6,3.8-6.2,7"/>
	</g>
	<g>
		<path class="st1" d="M1648.6,1032.2c4.4,6.4,8.3,13.8,11.3,21.9"/>
	</g>
	<g>
		<path class="st1" d="M1649.2,1032.3c9.5,5.3,18.4,12.9,26.5,22.3"/>
	</g>
	<g>
		<path class="st1" d="M1671.8,1011.1c0.2,10.2-2.2,20.5-6.5,28.3"/>
	</g>
	<g>
		<path class="st1" d="M1671.8,1011.4c0.1,3,0.8,5.9,1.6,8.6c3.3,10.9,8,20.9,10.4,32.3c0.1,0.4,0.2,0.9,0.5,0.9
			c0.3,0,0.3-0.8,0.1-0.7"/>
	</g>
	<g>
		<path class="st1" d="M1679.5,1035.6c4.8-11.3,9.6-23.2,10.9-36.6c0.9,17.5,2.4,34.9,4.5,52.1"/>
	</g>
	<g>
		<path class="st1" d="M1694.2,1036.9c12.9-3.2,25.8-5.9,38.8-8.3c-6.1,4.2-12.2,8.3-18.2,13.1c-2.3,1.8-4.6,3.8-6.2,7"/>
	</g>
	<g>
		<g>
			<path class="st1" d="M1219.3,1011c4.6,6.7,8.3,14,11.2,21.6c0.7,1.8,3.6,1,2.9-0.8c-3-7.8-6.7-15.4-11.5-22.3
				C1220.8,1007.9,1218.2,1009.4,1219.3,1011L1219.3,1011z"/>
		</g>
	</g>
	<g>
		<g>
			<path class="st1" d="M1220.4,1011.6c10,5.7,18.7,13.4,26.2,22.1c1.3,1.5,3.4-0.7,2.1-2.1c-7.6-8.9-16.5-16.8-26.8-22.6
				C1220.2,1008.1,1218.7,1010.7,1220.4,1011.6L1220.4,1011.6z"/>
		</g>
	</g>
	<g>
		<g>
			<path class="st1" d="M1242.3,989.1c0.1,9.4-1.7,19.2-6.3,27.5c-0.9,1.7,1.7,3.2,2.6,1.5c4.8-8.8,6.8-19,6.7-29
				C1245.3,987.2,1242.3,987.2,1242.3,989.1L1242.3,989.1z"/>
		</g>
	</g>
	<g>
		<path class="st1" d="M1243.8,989.4c0.1,3,0.8,5.9,1.6,8.6c3.3,10.9,8,20.9,10.4,32.3c0.1,0.4,0.2,0.9,0.5,0.9
			c0.3,0,0.3-0.8,0.1-0.7"/>
	</g>
	<g>
		<path class="st1" d="M1251.5,1013.6c4.8-11.3,9.6-23.2,10.9-36.6c0.9,17.5,2.4,34.9,4.5,52.1"/>
	</g>
	<g>
		<path class="st1" d="M1266.2,1014.9c12.9-3.2,25.8-5.9,38.8-8.3c-6.1,4.2-12.2,8.3-18.2,13.1c-2.3,1.8-4.6,3.8-6.2,7"/>
	</g>
	<g>
		<g>
			<path class="st1" d="M1649.7,732.8c-6,1-9.5,7.6-10.2,13.1c-1,6.9,1.4,14.1,5.7,19.5c4.4,5.6,10.9,9.1,17.5,11.6
				c7.1,2.7,14.7,4.1,22.3,4.1c6.5-0.1,14-0.8,18.5-6.1c4.1-5,5.3-11.9,5.5-18.2c0.1-3.8-0.1-7.7-1.1-11.4c-0.9-3.2-2.4-6.1-4.5-8.7
				c-4.1-5.2-9.9-9.1-15.3-12.8c-3.1-2.1-6.4-3.9-10-5.1c-3.7-1.2-7.5-1.7-11.4-1.8c-3.7-0.1-7.5,0-11.2,0.2
				c-3.4,0.2-6.6,1.5-8.1,4.7c-0.7,1.5-0.9,3.1-0.6,4.7c0.3,1.9,3.2,1.1,2.9-0.8c-0.6-3.4,2.4-5.3,5.4-5.6c3.2-0.3,6.6-0.3,9.8-0.3
				c6.9,0.1,13.4,1.4,19.4,5.1c2.9,1.8,5.6,3.8,8.3,5.8c2.1,1.6,4.3,3.3,6.2,5.2c2,2,3.7,4.2,4.9,6.7c1.5,3.1,2.1,6.6,2.2,10
				c0.3,5.7-0.1,12-2.7,17.2c-1.2,2.5-3,4.6-5.4,5.9c-2.7,1.5-5.8,1.9-8.8,2.1c-6.6,0.5-13.3-0.1-19.7-1.8
				c-6.2-1.7-12.5-4.2-17.6-8.3c-5.5-4.4-9.2-10.9-9.5-18c-0.2-5.3,2.1-13.1,8.2-14.2C1652.4,735.3,1651.6,732.5,1649.7,732.8
				L1649.7,732.8z"/>
		</g>
	</g>
	<g>
		<g>
			<path class="st1" d="M1660.8,746.4c0-0.1,0-0.1,0.1-0.2C1660.9,746.2,1660.9,746.2,1660.8,746.4c0-0.1,0.1-0.3,0.2-0.4
				c0.1-0.2,0.2-0.3,0.3-0.5c0.1-0.2,0-0.1,0,0c0-0.1,0.1-0.2,0.2-0.2c0.1-0.1,0.3-0.3,0.4-0.4c-0.1,0.1-0.2,0.2,0,0
				c0.1-0.1,0.2-0.1,0.2-0.2c0.1,0,0.1-0.1,0.2-0.1c0.3-0.1-0.3,0.1,0,0c0.1,0,0.4-0.1,0.5-0.1c-0.1,0.1-0.3,0-0.1,0
				c0.1,0,0.2,0,0.3,0c0.3,0,0,0-0.1,0c0,0,0.2,0,0.3,0.1c0.1,0,0.2,0.1,0.3,0.1c0.3,0.1-0.2-0.1-0.1,0c0.1,0.1,0.3,0.2,0.5,0.3
				c0.1,0,0.1,0.1,0.2,0.1c0,0-0.1-0.1-0.1-0.1c0,0.1,0.2,0.1,0.2,0.2c0.1,0.1,0.3,0.3,0.4,0.4c0.1,0.1,0,0.1-0.1-0.1
				c0,0,0.1,0.1,0.1,0.1c0.1,0.1,0.1,0.1,0.1,0.2c0,0.1,0.3,0.6,0.3,0.6c0-0.1,0-0.1-0.1-0.2c0,0.1,0.1,0.1,0.1,0.2
				c0,0.1,0.1,0.2,0.1,0.3c0.2,0.8,1.1,1.3,1.8,1c0.8-0.2,1.3-1,1-1.8c-0.7-2.2-2.5-4.2-4.9-4.4c-2.5-0.1-4.4,1.9-5.2,4.1
				c-0.3,0.7,0.3,1.7,1,1.8C1659.8,747.7,1660.6,747.2,1660.8,746.4L1660.8,746.4z"/>
		</g>
	</g>
	<g>
		<g>
			<path class="st1" d="M1677.1,754.3c0.1-0.3,0.2-0.5,0.3-0.8c-0.1,0.3,0.1-0.1,0.1-0.1c0.1-0.1,0.1-0.2,0.2-0.4
				c0.1-0.1,0.1-0.2,0.2-0.3c0-0.1,0.3-0.4,0.1-0.1c0.1-0.2,0.3-0.4,0.5-0.5c0.1-0.1,0.2-0.2,0.3-0.2c0.1-0.1,0.1-0.1-0.1,0
				c0,0,0.1-0.1,0.1-0.1c0.2-0.1,0.4-0.2,0.6-0.3c0.3-0.2-0.2,0.1,0.1,0c0.1,0,0.2-0.1,0.3-0.1c0.1,0,0.4-0.1,0,0c0.1,0,0.2,0,0.3,0
				c0.1,0,0.2,0,0.3,0c-0.2,0-0.1,0,0,0c0.1,0,0.2,0,0.3,0.1c0,0,0.4,0.1,0.2,0.1c-0.2-0.1,0.2,0.1,0.2,0.1c0.1,0,0.2,0.1,0.3,0.1
				c0.1,0.1,0.2,0.1,0.3,0.2c-0.3-0.2,0,0,0.1,0.1c0.2,0.2,0.4,0.4,0.5,0.5c0.3,0.3-0.1-0.2,0.1,0.1c0.1,0.1,0.1,0.2,0.2,0.3
				c0.1,0.2,0.3,0.5,0.4,0.7c-0.1-0.2,0,0,0,0.1c0.1,0.2,0.1,0.3,0.1,0.5c0.2,0.8,1.1,1.3,1.8,1c0.8-0.2,1.3-1,1-1.8
				c-0.8-2.6-3-5.2-6-5.2c-3,0-5.2,2.6-5.9,5.3c-0.2,0.8,0.3,1.7,1,1.8C1676,755.6,1676.8,755.1,1677.1,754.3L1677.1,754.3z"/>
		</g>
	</g>
	<g>
		<g>
			<path class="st1" d="M1658.9,762.5c1.2,4.7,3.8,10.3,8.8,12c4.6,1.6,9.2-1.5,10.6-5.9c0.6-1.8-2.3-2.6-2.9-0.8
				c-1,3-4.1,5-7.1,3.8c-3.8-1.5-5.6-6.2-6.5-9.8C1661.4,759.8,1658.5,760.6,1658.9,762.5L1658.9,762.5z"/>
		</g>
	</g>
	<g>
		<g>
			<path class="st1" d="M1663.1,777.9c-0.2,4.8-0.1,9.7,0.5,14.5c0.1,0.8,0.6,1.5,1.5,1.5c0.7,0,1.6-0.7,1.5-1.5
				c-0.5-4.8-0.7-9.6-0.5-14.5C1666.2,776,1663.2,776,1663.1,777.9L1663.1,777.9z"/>
		</g>
	</g>
	<g>
		<g>
			<path class="st1" d="M1638.6,843.7c4.1-7.5,10.3-12.9,17.7-17c3.6-2,7.4-4,11.3-5.5c4.1-1.6,8.7-2,12,1.3
				c2.9,2.9,3.9,7.4,3.6,11.4c-0.3,4.3-2.9,7.3-6.2,9.9c-7.7,5.9-15.9,11.9-25.3,14.6c-3.8,1.1-9.1,2.4-11.3-2
				c-2.2-4.3-0.8-10,0.1-14.5c0.4-1.9-2.5-2.7-2.9-0.8c-1,4.8-2.1,10.2-0.6,15c1.4,4.4,5.1,6.8,9.6,6.4c5-0.4,10-2.4,14.5-4.7
				c5.1-2.6,9.8-5.8,14.4-9.2c3.8-2.8,7.9-5.6,9.7-10.2c1.7-4.5,1.2-9.8-0.8-14.1c-2-4.2-6-7.2-10.7-7.4c-5.2-0.2-10.1,2.7-14.6,4.9
				c-4.4,2.2-8.7,4.6-12.6,7.7c-4.4,3.5-8,7.8-10.7,12.7C1635,843.9,1637.6,845.4,1638.6,843.7L1638.6,843.7z"/>
		</g>
	</g>
	<g>
		<g>
			<path class="st1" d="M1683,825.1c12.8-7.6,26.4-13.7,40.7-17.9c1.8-0.5,1.1-3.4-0.8-2.9c-14.5,4.3-28.4,10.5-41.4,18.2
				C1679.8,823.5,1681.3,826.1,1683,825.1L1683,825.1z"/>
		</g>
	</g>
	<g>
		<g>
			<path class="st1" d="M1685.6,829.5c12.8-7.6,26.4-13.7,40.7-17.9c1.8-0.5,1.1-3.4-0.8-2.9c-14.5,4.3-28.4,10.5-41.4,18.2
				C1682.4,827.9,1683.9,830.5,1685.6,829.5L1685.6,829.5z"/>
		</g>
	</g>
	<g>
		<g>
			<path class="st1" d="M1724.4,805.2c0.3-1.6,0.1-3,0-4.6c0-0.6,0-1.3,0.2-1.9c0,0,0.2-0.5,0.2-0.5c0-0.1-0.7,0.1-0.7,0.1
				c0,0.1,0.3,0.5,0.4,0.6c0.2,0.3,0.3,0.6,0.4,0.9c0.3,0.6,0.5,1.2,0.8,1.9c0.5,1.3,0.9,2.7,1.3,4.1c0.4,1.4,0.7,2.9,1,4.3
				c0.3,1.3,0.6,2.7,0.5,4.1c0,0.1-0.1,0.4-0.1,0.5c0.9,0.1,1.2,0.1,0.9-0.1c0,0-0.1-0.1-0.1-0.1c0-0.2-0.3-0.4-0.3-0.7
				c-0.1-0.4-0.2-0.8-0.2-1.2c-0.2-1.3-0.3-2.6-0.9-3.8c-0.3-0.7-1.4-0.9-2.1-0.5c-0.8,0.4-0.9,1.3-0.5,2.1c1,2.3,0.1,6.3,3.3,7.1
				c1.5,0.4,2.6-0.8,2.9-2.2c0.3-1.5,0-3.1-0.3-4.6c-0.5-3.1-1.3-6.2-2.4-9.1c-0.5-1.4-1.1-2.9-1.8-4.3c-0.6-1.2-1.8-2.2-3.2-1.8
				c-1.5,0.4-2.1,2.1-2.3,3.5c-0.3,1.8,0.3,3.7,0,5.5c-0.1,0.8,0.2,1.6,1,1.8C1723.3,806.4,1724.2,806,1724.4,805.2L1724.4,805.2z"
				/>
		</g>
	</g>
	<g>
		<g>
			<path class="st1" d="M1645.3,842.2c0-0.6,0.9-1.2,1.3-1.6c0.6-0.5,1.1-1,1.7-1.5c1-0.8,2.1-1.6,3.3-2.2c2.4-1.4,4.8-2.6,7.3-3.7
				c5.1-2.3,10-4.7,14.1-8.6c1.4-1.3-0.7-3.4-2.1-2.1c-4.4,4.1-9.9,6.4-15.3,8.9c-2.6,1.2-5.2,2.5-7.6,4.2c-1.2,0.8-2.4,1.8-3.5,2.8
				c-1.2,1.1-2.3,2.2-2.3,3.9C1642.3,844.1,1645.3,844.1,1645.3,842.2L1645.3,842.2z"/>
		</g>
	</g>
	<g>
		<g>
			<path class="st1" d="M1646.9,845c0-0.6,0.9-1.2,1.3-1.6c0.6-0.5,1.1-1,1.7-1.5c1-0.8,2.1-1.6,3.3-2.2c2.4-1.4,4.8-2.6,7.3-3.7
				c5.1-2.3,10-4.7,14.1-8.6c1.4-1.3-0.7-3.4-2.1-2.1c-4.4,4.1-9.9,6.4-15.3,8.9c-2.6,1.2-5.2,2.5-7.6,4.2c-1.2,0.8-2.4,1.8-3.5,2.8
				c-1.2,1.1-2.3,2.2-2.3,3.9C1643.9,847,1646.9,847,1646.9,845L1646.9,845z"/>
		</g>
	</g>
	<g>
		<g>
			<path class="st1" d="M1646.9,849c0-0.6,0.9-1.2,1.3-1.6c0.6-0.5,1.1-1,1.7-1.5c1-0.8,2.1-1.6,3.3-2.2c2.4-1.4,4.8-2.6,7.3-3.7
				c5.1-2.3,10-4.7,14.1-8.6c1.4-1.3-0.7-3.4-2.1-2.1c-4.4,4.1-9.9,6.4-15.3,8.9c-2.6,1.2-5.2,2.5-7.6,4.2c-1.2,0.8-2.4,1.8-3.5,2.8
				c-1.2,1.1-2.3,2.2-2.3,3.9C1643.9,851,1646.9,851,1646.9,849L1646.9,849z"/>
		</g>
	</g>
	<g>
		<g>
			<path class="st1" d="M1647.7,854.3c0-0.6,0.9-1.2,1.3-1.6c0.6-0.5,1.1-1,1.7-1.5c1-0.8,2.1-1.6,3.3-2.2c2.4-1.4,4.8-2.6,7.3-3.7
				c5.1-2.3,10-4.7,14.1-8.6c1.4-1.3-0.7-3.4-2.1-2.1c-4.4,4.1-9.9,6.4-15.3,8.9c-2.6,1.2-5.2,2.5-7.6,4.2c-1.2,0.8-2.4,1.8-3.5,2.8
				c-1.2,1.1-2.3,2.2-2.3,3.9C1644.7,856.2,1647.7,856.2,1647.7,854.3L1647.7,854.3z"/>
		</g>
	</g>
	<g>
		<g>
			<path class="st1" d="M1637.8,834.8c5.7,5.2,11.5,10.2,17.4,15.1c-0.1-0.6-0.2-1.2-0.2-1.8c-2,2.7-3.7,6.5-1.2,9.5
				c0.6,0.8,1.9,0.5,2.4-0.3c1.2-1.9,1.6-4.2,1.4-6.4c-0.5,0.5-1,1-1.5,1.5c0.8,0.1,1.6,0.2,2.4,0.3c0.6,0.1,1.3-0.5,1.4-1.1
				c0.1-0.6,0.3-1.4,0.9-1.8c0.4-0.3,0.9-0.2,1.3-0.4c1.3-0.3,2.2-1.4,2.1-2.7c0-1.2-0.9-2.2-2-2.7c-0.7-0.3-1.3-0.3-2-0.2
				c-0.3,0-1.1,0.2-1.2,0c-1-1.6-3.6-0.1-2.6,1.5c0.6,1,1.5,1.5,2.7,1.6c0.5,0,1.1-0.2,1.6-0.2c0.1,0,1.2,0.4,0.7-0.2
				c-0.1-0.1-1.2,0.2-1.3,0.3c-0.5,0.2-0.9,0.4-1.3,0.8c-1,0.8-1.5,2-1.8,3.2c0.5-0.4,1-0.7,1.4-1.1c-0.8-0.1-1.6-0.2-2.4-0.3
				c-0.7-0.1-1.6,0.8-1.5,1.5c0.2,1.7,0,3.4-1,4.9c0.8-0.1,1.6-0.2,2.4-0.3c-1.4-1.8,0.6-4.5,1.7-5.8c0.4-0.5,0.2-1.4-0.2-1.8
				c-5.9-4.9-11.7-10-17.4-15.1C1638.5,831.4,1636.4,833.5,1637.8,834.8L1637.8,834.8z"/>
		</g>
	</g>
	<g>
		<g>
			<path class="st1" d="M1662.4,790.1c-9.6,3.8-19.1,7.7-28.5,11.7c-3.6,1.5-7.5,3-8.4,7.3c-0.8,4.1,1.2,8.2,3.6,11.4
				c3.2,4.4,6.8,8.5,10.6,12.4c1.3,1.4,3.5-0.7,2.1-2.1c-3-3.1-5.8-6.3-8.5-9.7c-2.3-2.9-5.1-6.4-5-10.3c0.1-4.1,4.3-5.2,7.5-6.5
				c4.3-1.8,8.6-3.6,12.9-5.4c4.8-2,9.7-3.9,14.6-5.9C1665,792.3,1664.2,789.4,1662.4,790.1L1662.4,790.1z"/>
		</g>
	</g>
	<g>
		<g>
			<path class="st1" d="M1693.9,820.2c-0.6,2.7-0.2,5.5,1.1,8c0.5,0.9,2.1,1,2.6,0c1.1-2.4,1.6-5,1.6-7.6c-0.9,0.4-1.7,0.7-2.6,1.1
				c2.4,2.3,5.7-0.4,5.5-3.2c-0.1-1.4-0.8-2.8-2.1-3.6c-0.6-0.3-1.2-0.5-1.9-0.5c-0.3,0-0.7,0.1-1,0.2c-0.1,0-0.6,0.2-0.6,0.2
				c0,0,0.9,0.5,0.6,0.5c0,0,0,0,0-0.1c0,0,0-0.4,0-0.2c0-0.1,0.1-0.5,0.1-0.7c0.1-0.6,0.3-1.3,0.2-1.9c-0.1-1.4-1-2.8-2.6-2.7
				c-1.5,0.1-2.6,1.5-3.4,2.7c-0.8,1.4-1.6,2.8-1.8,4.4c-0.3,1.7-0.1,3.4,1,4.8c1,1.4,2.7,2.1,4.3,1.2c1.7-0.9,0.2-3.5-1.5-2.6
				c0.1-0.1,0.3,0.1,0,0c0.1,0.1-0.3-0.3-0.3-0.3c-0.3-0.3-0.4-0.7-0.5-1.1c-0.2-1.1,0.2-2.4,0.7-3.4c0.3-0.6,0.7-1.2,1-1.8
				c0.1-0.1,0.8-1,0.8-0.9c0.1,0.1-1-0.3-0.7-0.3c0,0,0,0.3,0,0.4c0,0.4-0.1,0.8-0.2,1.2c-0.2,1.1-0.3,2.3,0.5,3.2
				c0.4,0.5,1,0.8,1.7,0.8c0.6,0,1.4-0.5,1.7-0.4c0.1,0,0.4,0.2,0.6,0.4c0.2,0.2,0.3,0.6,0.3,0.9c0,0.2-0.2,0.6-0.3,0.7
				c-0.1,0.1-0.4,0.3-0.2,0.1c0.1,0,0.4,0.3,0,0c-0.9-0.9-2.6-0.2-2.6,1.1c0,2.1-0.3,4.2-1.2,6.1c0.9,0,1.7,0,2.6,0
				c-0.9-1.7-1.2-3.8-0.8-5.7C1697.2,819.1,1694.3,818.3,1693.9,820.2L1693.9,820.2z"/>
		</g>
	</g>
	<g>
		<g>
			<path class="st1" d="M1695.8,820.8c0.9,3.4,3,6.5,6,8.4c2.6,1.7,6,2.4,9,1.2c0.8-0.3,1.3-1,1-1.8c-0.2-0.7-1.1-1.3-1.8-1
				c-0.3,0.1-0.6,0.2-0.9,0.3c-0.2,0-0.3,0.1-0.5,0.1c-0.2,0-0.2,0-0.1,0c-0.1,0-0.2,0-0.2,0c-0.3,0-0.6,0-0.9,0c-0.2,0-0.3,0-0.5,0
				c-0.1,0-0.2,0-0.2,0c0.1,0,0.1,0,0,0c-1.4-0.2-2.3-0.6-3.4-1.4c-2.2-1.5-3.8-4-4.6-6.7C1698.2,818.1,1695.3,818.9,1695.8,820.8
				L1695.8,820.8z"/>
		</g>
	</g>
	<g>
		<g>
			<path class="st1" d="M1705.2,828.8c0.4-3.2,0.8-6.4,1.3-9.6c0.1-0.8-0.8-1.5-1.5-1.5c-0.9,0-1.4,0.7-1.5,1.5
				c-0.4,3.2-0.8,6.4-1.3,9.6c-0.1,0.8,0.8,1.5,1.5,1.5C1704.6,830.3,1705.1,829.6,1705.2,828.8L1705.2,828.8z"/>
		</g>
	</g>
	<g>
		<g>
			<path class="st1" d="M1670.6,793.4c7.4,1.8,14.7,4.5,21.5,8c3.5,1.7,6.8,3.7,10.1,5.8c1.6,1,3.2,2.1,4.8,3.2
				c1.3,1,2.5,2.1,2.9,3.7c0.5,1.8,3.4,1.1,2.9-0.8c-1.1-3.6-4.4-5.6-7.4-7.6c-3.6-2.4-7.2-4.5-11-6.5c-7.3-3.8-15-6.7-23-8.7
				C1669.5,790.1,1668.7,793,1670.6,793.4L1670.6,793.4z"/>
		</g>
	</g>
	<g>
		<g>
			<path class="st1" d="M1707.9,831.7c1.3-2.9,2-5.9,2.3-9c0.1-0.8-0.7-1.5-1.5-1.5c-0.9,0-1.4,0.7-1.5,1.5c0,0.2,0,0.4-0.1,0.6
				c0,0-0.1,0.5,0,0.2c0,0.4-0.1,0.7-0.2,1.1c-0.1,0.7-0.3,1.3-0.4,2c-0.2,0.7-0.4,1.3-0.6,1.9c-0.1,0.3-0.2,0.7-0.4,1
				c-0.1,0.1-0.1,0.3-0.2,0.4c0.1-0.2-0.1,0.3-0.1,0.3c-0.3,0.7-0.2,1.6,0.5,2.1C1706.5,832.5,1707.5,832.4,1707.9,831.7
				L1707.9,831.7z"/>
		</g>
	</g>
	<g>
		<g>
			<path class="st1" d="M1663.5,799.5c1,5.3,1.1,10.8,0.6,16.2c-0.1,0.8,0.7,1.5,1.5,1.5c0.9,0,1.4-0.7,1.5-1.5
				c0.6-5.7,0.3-11.4-0.7-17c-0.1-0.8-1.1-1.2-1.8-1C1663.7,797.9,1663.4,798.7,1663.5,799.5L1663.5,799.5z"/>
		</g>
	</g>
	<g>
		<g>
			<path class="st1" d="M1673.9,799.2c-0.6,5.7-0.8,11.5-0.5,17.2c0.1,1.9,3.1,1.9,3,0c-0.3-5.7-0.1-11.5,0.5-17.2
				c0.1-0.8-0.7-1.5-1.5-1.5C1674.5,797.7,1673.9,798.4,1673.9,799.2L1673.9,799.2z"/>
		</g>
	</g>
	<g>
		<g>
			<path class="st1" d="M1665.2,855.5c0,7.6,0,15.2,0,22.8c0,1.8,0,3.6,0,5.5c0,1,0.5,4-0.7,4.5c-1.1,0.4-2.9-0.3-3.9-0.6
				c-1.9-0.4-3.7-0.9-5.5-1.4c-3-0.9-6.3-2.5-9.5-1.9c-2.7,0.5-4.5,2.5-5.4,5.1c-1.5,4.7,0.5,11.1,6,11.9c7,1.1,10.3-7.2,9.7-12.9
				c-0.2-1.9-3.2-1.9-3,0c0.4,3.7-1.4,11.5-6.8,9.8c-2.2-0.7-3.3-3-3.3-5.2c-0.1-1.9,0.4-4.5,2.3-5.4c2.5-1.2,5.9,0.5,8.3,1.3
				c3,0.9,6.1,1.8,9.2,2.3c2.3,0.4,4.7-0.3,5.4-2.8c0.4-1.5,0.2-3.1,0.2-4.6c0-1.7,0-3.5,0-5.2c0-7.7,0-15.4,0-23.1
				C1668.2,853.6,1665.2,853.6,1665.2,855.5L1665.2,855.5z"/>
		</g>
	</g>
	<g>
		<g>
			<path class="st1" d="M1683.4,850.3c1.8,12.7,3.7,25.3,5.5,38c0.2,1.2,1.8,1.3,2.5,0.7c2.5-2.2,5.8-2.9,9-3.4
				c1.8-0.3,3.9-0.7,5.7-0.2c1.4,0.4,2.7,1.7,2.6,3.2c-0.2,3.4-4.9,4.2-7.3,2.8c-2.6-1.5-3.3-5-2.4-7.7c0.6-1.8-2.3-2.6-2.9-0.8
				c-1,3.2-0.4,6.8,1.8,9.4c2.3,2.7,6.2,3.6,9.4,2.2c3.3-1.4,5.5-5.2,3.7-8.7c-2.1-3.9-6.5-3.8-10.3-3.2c-4.2,0.6-8.2,1.5-11.5,4.3
				c0.8,0.2,1.7,0.4,2.5,0.7c-1.8-12.7-3.7-25.3-5.5-38C1686,847.6,1683.1,848.4,1683.4,850.3L1683.4,850.3z"/>
		</g>
	</g>
</g>
</svg>
